<svg xmlns="http://www.w3.org/2000/svg" viewBox="0 0 49.4 44.79"><defs><style>.cls-1{fill:#074ea3;}.cls-2{fill:#013177;}.cls-3{fill:#5f8eaf;}.cls-4{fill:#5f8eaf;}.cls-5{fill:#fff;}</style></defs><title>Ресурс 28</title><g id="Слой_2" data-name="Слой 2"><g id="Layer_1" data-name="Layer 1"><rect class="cls-1" x="10.85" y="5.88" width="38.54" height="34.24" rx="0.65" ry="0.65"/><path class="cls-2" d="M49.2,6.06l-6-5.88A.65.65,0,0,0,42.73,0H17.51a.65.65,0,0,0-.45.18L11,6.06a.65.65,0,0,0,.45,1.11H48.75a.65.65,0,0,0,.45-1.11Z"/><path class="cls-3" d="M41.59,31a3.38,3.38,0,0,1-3.38-3.38V23.26a.65.65,0,0,1,.65-.65h5.46a.65.65,0,0,1,.65.65v4.36A3.38,3.38,0,0,1,41.59,31ZM39.5,23.91v3.72a2.09,2.09,0,0,0,2.09,2.09h0a2.09,2.09,0,0,0,2.09-2.09V23.91Z"/><path class="cls-3" d="M44.32,36.5H38.86a.65.65,0,0,1,0-1.29h5.46a.65.65,0,0,1,0,1.29Z"/><path class="cls-3" d="M41.59,36.5a.65.65,0,0,1-.65-.65V30.36a.65.65,0,1,1,1.29,0v5.49A.65.65,0,0,1,41.59,36.5Z"/><rect class="cls-4" x="26.75" y="7.13" width="6.64" height="33.03"/><path class="cls-3" d="M19.08,30.46l5.73,5.73Z"/><path class="cls-5" d="M24.81,36.83a.64.64,0,0,1-.46-.19l-5.73-5.73a.65.65,0,1,1,.91-.91l5.73,5.73a.64.64,0,0,1-.46,1.1Z"/><path class="cls-2" d="M32.58,40.46l-6.51-6.51a2.54,2.54,0,0,0-3.59,3.59L29,44.05a2.54,2.54,0,0,0,3.59-3.59Z"/><path class="cls-3" d="M10.89,16.05a.65.65,0,0,0,.62-.64V12a.65.65,0,0,0-.66-.65,11.16,11.16,0,0,0,0,22.32h0a.65.65,0,0,0,.65-.65V29.66a.65.65,0,0,0-.62-.64,6.49,6.49,0,0,1,0-13Z"/><path class="cls-4" d="M19,14.64a11.06,11.06,0,0,0-8.2-3.27h0v4.68h0a6.49,6.49,0,1,1,0,13h0v4.68h.32A11.05,11.05,0,0,0,19,30.43,11.17,11.17,0,0,0,19,14.64Z"/><polygon class="cls-3" points="32.02 0.02 28.13 0.02 26.75 7.13 33.39 7.13 32.02 0.02"/></g></g></svg>