<svg xmlns="http://www.w3.org/2000/svg" viewBox="0 0 57.72 37.24"><defs><style>.cls-1{fill:#013177;}.cls-2{fill:#fff;}.cls-3{fill:#5f8eaf;}</style></defs><title>Ресурс 20</title><g id="Слой_2" data-name="Слой 2"><g id="Layer_1" data-name="Layer 1"><path class="cls-1" d="M.65,0H57.08a.65.65,0,0,1,.65.65v36a.64.64,0,0,1-.64.64H.64A.64.64,0,0,1,0,36.6V.65A.65.65,0,0,1,.65,0Z"/><rect class="cls-2" x="5.72" y="4.56" width="2.49" height="28.25"/><rect class="cls-2" x="27.45" y="4.56" width="2.49" height="28.25"/><rect class="cls-2" x="50.04" y="4.56" width="2.49" height="28.25"/><rect class="cls-2" x="9.81" y="4.68" width="1.21" height="25.67"/><rect class="cls-2" x="19.7" y="4.68" width="1.21" height="25.67"/><rect class="cls-2" x="17.37" y="4.68" width="0.62" height="25.67"/><rect class="cls-2" x="22.75" y="4.68" width="1.5" height="25.67"/><rect class="cls-2" x="25.73" y="4.68" width="0.62" height="25.67"/><rect class="cls-2" x="12.25" y="4.68" width="0.62" height="25.67"/><rect class="cls-2" x="14.19" y="4.68" width="1.69" height="25.67"/><rect class="cls-2" x="46.79" y="4.68" width="1.21" height="25.67" transform="translate(94.78 35.04) rotate(180)"/><rect class="cls-2" x="36.89" y="4.68" width="1.21" height="25.67" transform="translate(74.99 35.04) rotate(180)"/><rect class="cls-2" x="39.81" y="4.68" width="0.62" height="25.67" transform="translate(80.24 35.04) rotate(180)"/><rect class="cls-2" x="33.56" y="4.68" width="1.5" height="25.67" transform="translate(68.61 35.04) rotate(180)"/><rect class="cls-2" x="31.45" y="4.68" width="0.62" height="25.67" transform="translate(63.53 35.04) rotate(180)"/><rect class="cls-2" x="44.93" y="4.68" width="0.62" height="25.67" transform="translate(90.48 35.04) rotate(180)"/><rect class="cls-2" x="41.93" y="4.68" width="1.69" height="25.67" transform="translate(85.54 35.04) rotate(180)"/><rect class="cls-3" y="11.34" width="57.72" height="3.14"/></g></g></svg>