<svg xmlns="http://www.w3.org/2000/svg" viewBox="0 0 45.02 50.28"><defs><style>.cls-1{fill:#074ea3;}.cls-2{fill:#013177;}.cls-3{fill:#5f8eaf;}.cls-4{fill:#fff;}.cls-5{fill:#5f8eaf;}</style></defs><title>Ресурс 19</title><g id="Слой_2" data-name="Слой 2"><g id="Layer_1" data-name="Layer 1"><path class="cls-1" d="M44.59,7.9,22.73,0a.65.65,0,0,0-.44,0L.43,7.9a.65.65,0,0,0,0,1.21L22.29,17a.65.65,0,0,0,.44,0L44.59,9.12a.65.65,0,0,0,0-1.21Z"/><path class="cls-1" d="M22.73,15.77.86,7.9A.64.64,0,0,0,0,8.51v28a.65.65,0,0,0,.39.59l21.87,9.27a.65.65,0,0,0,.9-.59V16.37A.65.65,0,0,0,22.73,15.77Z"/><path class="cls-2" d="M44.75,8a.65.65,0,0,0-.59-.08L22.29,15.77a.65.65,0,0,0-.43.61V45.79a.65.65,0,0,0,.91.59l21.87-9.81A.64.64,0,0,0,45,36V8.51A.65.65,0,0,0,44.75,8Z"/><path class="cls-3" d="M42.36,35.38H28.59a.65.65,0,0,0-.65.65v8.64a5.62,5.62,0,0,0,5.61,5.61H37.4A5.62,5.62,0,0,0,43,44.67V36A.65.65,0,0,0,42.36,35.38Z"/><path class="cls-3" d="M40.42,36.88H30.7a.86.86,0,0,1-.86-.86V30.35a5.72,5.72,0,0,1,11.44,0V36A.86.86,0,0,1,40.42,36.88Zm-8.86-1.72h8V30.35a4,4,0,0,0-8,0Z"/><path class="cls-4" d="M37.37,41.08a1.89,1.89,0,1,0-2.6,1.75h0v2.62h1.39V42.85A1.89,1.89,0,0,0,37.37,41.08Z"/><polygon class="cls-3" points="15.07 13.7 36.54 5.01 29.6 2.51 7.55 10.99 15.07 13.7"/><polygon class="cls-5" points="7.55 10.99 7.55 40.21 15.07 43.34 15.07 13.7 7.55 10.99"/></g></g></svg>