<svg xmlns="http://www.w3.org/2000/svg" viewBox="0 0 38.91 40.46"><defs><style>.cls-1{fill:#074ea3;}.cls-2{fill:#013177;}.cls-3{fill:#fff;}.cls-4{fill:#5f8eaf;}.cls-5{fill:#5f8eaf;}</style></defs><title>Ресурс 24</title><g id="Слой_2" data-name="Слой 2"><g id="Layer_1" data-name="Layer 1"><path class="cls-1" d="M34.66,5.27H9A4.25,4.25,0,0,0,4.77,9.51v30.3a.65.65,0,0,0,.64.65H38.26a.65.65,0,0,0,.64-.65V9.51A4.25,4.25,0,0,0,34.66,5.27Z"/><path class="cls-2" d="M9.79.86v0Z"/><path class="cls-2" d="M9.79,6.55a.86.86,0,0,1-.86-.86V.86a.86.86,0,0,1,1.72,0V5.69A.86.86,0,0,1,9.79,6.55Z"/><path class="cls-2" d="M34.08.86v0Z"/><path class="cls-2" d="M34.08,6.55a.86.86,0,0,1-.86-.86V.86a.86.86,0,1,1,1.72,0V5.69A.86.86,0,0,1,34.08,6.55Z"/><rect class="cls-3" x="16.06" y="23.18" width="11.41" height="8.63"/><rect class="cls-2" x="4.64" y="23.18" width="11.41" height="8.63"/><rect class="cls-2" x="16.13" y="14.55" width="11.41" height="8.63"/><rect class="cls-2" x="16.13" y="31.82" width="11.41" height="8.63"/><rect class="cls-2" x="27.45" y="23.18" width="11.41" height="8.63"/><path class="cls-4" d="M28,19.92l-3.83-3.83a.64.64,0,0,0-.91,0L10.4,28.93,4.59,23.12a.65.65,0,0,0-.91,0L.19,26.61a.65.65,0,0,0,0,.91l10.1,10.1a.65.65,0,0,0,.91,0L28,20.83A.65.65,0,0,0,28,19.92Z"/><path class="cls-5" d="M10.57,28.92l-.14,0L4.59,23.12a.65.65,0,0,0-.91,0L.19,26.61a.65.65,0,0,0,0,.91L10.24,37.57a.65.65,0,0,0,.33.18Z"/><path class="cls-4" d="M34.66,5.27H9A4.25,4.25,0,0,0,4.77,9.51v4.56a.65.65,0,0,0,.64.65H38.26a.65.65,0,0,0,.64-.65V9.51A4.25,4.25,0,0,0,34.66,5.27Z"/></g></g></svg>