<svg xmlns="http://www.w3.org/2000/svg" viewBox="0 0 47.76 52.83"><defs><style>.cls-1{fill:#013177;}.cls-2{fill:#fff;}.cls-3{fill:#074ea3;}.cls-4{fill:#074ea3;}</style></defs><title>Ресурс 22</title><g id="Слой_2" data-name="Слой 2"><g id="Layer_1" data-name="Layer 1"><path class="cls-1" d="M9.39,52.83H.65A.65.65,0,0,1,0,52.19v-43a.65.65,0,0,1,.65-.65H9.39a.65.65,0,0,1,.65.65v43A.65.65,0,0,1,9.39,52.83Zm-8.1-1.29H8.74V9.8H1.29Z"/><path class="cls-1" d="M9.39,18.41a.64.64,0,0,1-.45-.19L.19,9.62A.65.65,0,1,1,1.1,8.7L9.84,17.3a.65.65,0,0,1-.45,1.11Z"/><path class="cls-1" d="M9.39,27a.64.64,0,0,1-.45-.19L.19,18.22a.65.65,0,1,1,.91-.92l8.74,8.61A.65.65,0,0,1,9.39,27Z"/><path class="cls-1" d="M9.39,35.62a.64.64,0,0,1-.45-.19L.19,26.83a.65.65,0,1,1,.91-.92l8.74,8.61a.65.65,0,0,1-.45,1.11Z"/><path class="cls-1" d="M9.39,44.23A.64.64,0,0,1,8.94,44L.19,35.44a.65.65,0,1,1,.91-.92l8.74,8.61a.65.65,0,0,1-.45,1.11Z"/><path class="cls-1" d="M9.39,52.83a.64.64,0,0,1-.45-.19L.19,44a.65.65,0,1,1,.91-.92l8.74,8.61a.65.65,0,0,1-.45,1.11Z"/><path class="cls-1" d="M.65,18.41A.65.65,0,0,1,.19,17.3L8.94,8.7a.65.65,0,0,1,.91.92L1.1,18.22A.64.64,0,0,1,.65,18.41Z"/><path class="cls-1" d="M.65,27a.65.65,0,0,1-.45-1.11L8.94,17.3a.65.65,0,0,1,.91.92L1.1,26.83A.64.64,0,0,1,.65,27Z"/><path class="cls-1" d="M.65,35.62a.65.65,0,0,1-.45-1.11l8.74-8.61a.65.65,0,0,1,.91.92L1.1,35.44A.65.65,0,0,1,.65,35.62Z"/><path class="cls-1" d="M.65,44.23a.65.65,0,0,1-.45-1.11l8.74-8.61a.65.65,0,0,1,.91.92L1.1,44A.64.64,0,0,1,.65,44.23Z"/><path class="cls-1" d="M.65,52.83a.65.65,0,0,1-.45-1.11l8.74-8.61a.65.65,0,0,1,.91.92L1.1,52.65A.64.64,0,0,1,.65,52.83Z"/><path class="cls-1" d="M9.39,18.41H.65a.65.65,0,1,1,0-1.29H9.39a.65.65,0,0,1,0,1.29Z"/><path class="cls-1" d="M9.39,27H.65a.65.65,0,0,1,0-1.29H9.39a.65.65,0,0,1,0,1.29Z"/><path class="cls-1" d="M9.39,35.62H.65a.65.65,0,1,1,0-1.29H9.39a.65.65,0,0,1,0,1.29Z"/><path class="cls-1" d="M9.39,44.23H.65a.65.65,0,1,1,0-1.29H9.39a.65.65,0,0,1,0,1.29Z"/><path class="cls-1" d="M37.27,9.8H18.42a.64.64,0,0,1-.64-.64V6.33a.65.65,0,0,1,.64-.65H37.27a.65.65,0,0,1,.65.65V9.16A.64.64,0,0,1,37.27,9.8ZM19.07,8.51H36.62V7H19.07Z"/><circle class="cls-2" cx="37.56" cy="7.75" r="1.41"/><path class="cls-1" d="M37.56,9.8a2.05,2.05,0,1,1,2.05-2.05A2.05,2.05,0,0,1,37.56,9.8Zm0-2.81a.76.76,0,1,0,.76.76A.76.76,0,0,0,37.56,7Z"/><path class="cls-1" d="M37.56,18.76a.65.65,0,0,1-.65-.65v-9a.65.65,0,1,1,1.29,0v9A.65.65,0,0,1,37.56,18.76Z"/><path class="cls-1" d="M39,22.44H38a1.82,1.82,0,0,1-1.82-1.82.65.65,0,0,1,1.29,0,.53.53,0,0,0,.53.53H39a.53.53,0,0,0,.53-.53v-1a.53.53,0,0,0-.53-.53H37.59a.64.64,0,0,1-.65-.64V15.84a.65.65,0,0,1,1.29,0v2H39a1.82,1.82,0,0,1,1.82,1.82v1A1.82,1.82,0,0,1,39,22.44Z"/><path class="cls-1" d="M43.49,27.89a.64.64,0,0,1-.44-.17l-4.88-4.56L33.64,27.7a.65.65,0,0,1-.92-.91l5-5a.65.65,0,0,1,.9,0l5.34,5a.65.65,0,0,1-.44,1.12Z"/><path class="cls-3" d="M18.66,3.49,9.77,0a.66.66,0,0,0-.23,0H.65A.65.65,0,0,0,0,.65V9.16a.64.64,0,0,0,.65.64H18.42a.64.64,0,0,0,.65-.64V4.09A.64.64,0,0,0,18.66,3.49Z"/><rect class="cls-4" x="28.92" y="26.52" width="18.85" height="12.21" rx="0.65" ry="0.65"/><path class="cls-3" d="M28.92,32V38a.68.68,0,0,0,.68.68H47.08a.68.68,0,0,0,.68-.68V32Z"/></g></g></svg>