<svg xmlns="http://www.w3.org/2000/svg" viewBox="0 0 46.7 49.83"><defs><style>.cls-1{fill:#013177;}.cls-2{fill:#fff;}.cls-3{fill:#074ea3;}.cls-4{fill:#074ea3;}.cls-5{fill:#074ea3;}</style></defs><title>Ресурс 10</title><g id="Слой_2" data-name="Слой 2"><g id="Layer_1" data-name="Layer 1"><path class="cls-1" d="M.65,6H37a.64.64,0,0,1,.64.64V49.19a.65.65,0,0,1-.65.65H.65A.65.65,0,0,1,0,49.19V6.63A.65.65,0,0,1,.65,6Z"/><rect class="cls-2" x="4.54" y="9.33" width="29.09" height="35.21" rx="0.65" ry="0.65"/><path class="cls-3" d="M29.68,4H23.45a4.65,4.65,0,0,0-9.22,0H8a.65.65,0,0,0-.65.65v6.88a.65.65,0,0,0,.65.65H29.68a.65.65,0,0,0,.65-.65V4.65A.65.65,0,0,0,29.68,4Z"/><circle class="cls-4" cx="9.92" cy="16.33" r="1.74"/><path class="cls-1" d="M14.66,16.33h0Z"/><path class="cls-1" d="M28.7,17h-14a.65.65,0,1,1,0-1.29h14a.65.65,0,0,1,0,1.29Z"/><circle class="cls-4" cx="9.92" cy="21.95" r="1.74"/><path class="cls-1" d="M14.66,22h0Z"/><path class="cls-1" d="M28.7,22.6h-14a.65.65,0,1,1,0-1.29h14a.65.65,0,0,1,0,1.29Z"/><circle class="cls-4" cx="9.92" cy="27.57" r="1.74"/><path class="cls-1" d="M14.66,27.57h0Z"/><path class="cls-1" d="M28.7,28.22h-14a.65.65,0,1,1,0-1.29h14a.65.65,0,1,1,0,1.29Z"/><circle class="cls-4" cx="9.92" cy="33.2" r="1.74"/><path class="cls-1" d="M14.66,33.2h0Z"/><path class="cls-1" d="M28.7,33.84h-14a.65.65,0,1,1,0-1.29h14a.65.65,0,0,1,0,1.29Z"/><path class="cls-4" d="M36.48,26.64a.65.65,0,0,0-.27-.41l-2.55-1.76a.65.65,0,0,0-.9.16L25.42,35.28a.65.65,0,0,0,.16.9l2.55,1.76a.65.65,0,0,0,.9-.17l7.35-10.66A.65.65,0,0,0,36.48,26.64Z"/><path class="cls-5" d="M45,10.7a2.8,2.8,0,0,0-3.89.71L32.27,24.28a.65.65,0,0,0,.16.9L36,27.63a.65.65,0,0,0,.9-.16l8.88-12.87A2.8,2.8,0,0,0,45,10.7Z"/><path class="cls-5" d="M41.9,23.86a.65.65,0,0,1-.53-1l4-5.74-1-2.23a.65.65,0,0,1,1.18-.51l1.11,2.56a.65.65,0,0,1-.06.62l-4.16,6A.64.64,0,0,1,41.9,23.86Z"/><polygon class="cls-5" points="25.41 35.3 23.38 42.11 29.03 37.79 25.41 35.3"/></g></g></svg>