<svg xmlns="http://www.w3.org/2000/svg" viewBox="0 0 59.37 59.38"><defs><style>.cls-1{fill:#074ea3;}.cls-2{fill:#074ea3;}.cls-3{fill:#074ea3;}</style></defs><title>Ресурс 5</title><g id="Слой_2" data-name="Слой 2"><g id="Layer_1" data-name="Layer 1"><path class="cls-1" d="M38.17,14.78l-8.08-6.3A.65.65,0,0,0,29,9v3.39A18.2,18.2,0,0,0,11.5,30.55a.65.65,0,0,0,.65.65H17a.65.65,0,0,0,.65-.65A12,12,0,0,1,29,18.56v3a.64.64,0,0,0,1,.51l8.08-6.3a.65.65,0,0,0,0-1Z"/><path class="cls-2" d="M47.22,29.91H42.34a.65.65,0,0,0-.65.65,12,12,0,1,1-24,0,.65.65,0,0,0-.65-.65H12.15a.65.65,0,0,0-.65.65,18.18,18.18,0,1,0,36.37,0A.65.65,0,0,0,47.22,29.91Z"/><path class="cls-3" d="M29.54,33.92H23.84v-1.4l1.92-1.94q.82-.86,1.08-1.18a2.56,2.56,0,0,0,.35-.54,1.16,1.16,0,0,0,.1-.47.61.61,0,0,0-.2-.48.81.81,0,0,0-.56-.18,1.53,1.53,0,0,0-.75.21,5.37,5.37,0,0,0-.86.63L23.75,27.2a6.37,6.37,0,0,1,1-.78,3.7,3.7,0,0,1,.9-.36,4.47,4.47,0,0,1,1.09-.12,3.31,3.31,0,0,1,1.36.27,2.13,2.13,0,0,1,.93.77,2,2,0,0,1,.33,1.12,2.87,2.87,0,0,1-.47,1.63,5.39,5.39,0,0,1-.64.8q-.4.42-1.71,1.59v.05h3Z"/><path class="cls-3" d="M36.25,32.4h-.87v1.52h-2.1V32.4H30.15V30.83l3.27-4.78h2v4.75h.87Zm-3-1.59v-.91c0-.17,0-.4,0-.7a4.37,4.37,0,0,1,0-.46h-.06a5.72,5.72,0,0,1-.41.77L32,30.81Z"/><path class="cls-3" d="M3.78,28.83H.86a.86.86,0,0,0,0,1.72H3.78a.86.86,0,0,0,0-1.72Z"/><path class="cls-3" d="M58.51,28.83H55.59a.86.86,0,0,0,0,1.72h2.92a.86.86,0,0,0,0-1.72Z"/><path class="cls-3" d="M29.69,0a.86.86,0,0,0-.86.86V3.78a.86.86,0,1,0,1.72,0V.86A.86.86,0,0,0,29.69,0Z"/><path class="cls-3" d="M29.69,54.73a.86.86,0,0,0-.86.86v2.92a.86.86,0,0,0,1.72,0V55.59A.86.86,0,0,0,29.69,54.73Z"/><path class="cls-3" d="M9.91,8.7A.86.86,0,0,0,8.7,9.91L10.76,12A.86.86,0,0,0,12,10.76Z"/><path class="cls-3" d="M48.61,47.4a.86.86,0,1,0-1.22,1.22l2.07,2.07a.86.86,0,0,0,1.22-1.22Z"/><path class="cls-3" d="M49.46,8.7,47.4,10.76A.86.86,0,0,0,48.61,12l2.07-2.07A.86.86,0,0,0,49.46,8.7Z"/><path class="cls-3" d="M10.76,47.4,8.7,49.46a.86.86,0,0,0,1.22,1.22L12,48.61a.86.86,0,1,0-1.22-1.22Z"/></g></g></svg>